<?xml version="1.0" encoding="utf-8"?>
<!-- Generator: Adobe Illustrator 18.1.1, SVG Export Plug-In . SVG Version: 6.00 Build 0)  -->
<svg version="1.1" id="Layer_1" xmlns="http://www.w3.org/2000/svg" xmlns:xlink="http://www.w3.org/1999/xlink" x="0px" y="0px"
	 viewBox="-30 9970 60 60" enable-background="new -30 9970 60 60" xml:space="preserve">
<g>
	<path fill="#191717" d="M-0.1,9971.4c-16,0-28.9,12.9-28.9,28.9c0,12.8,8.3,23.6,19.8,27.4c1.4,0.3,2-0.6,2-1.4c0-0.7,0-3,0-5.4
		c-8,1.8-9.7-3.4-9.7-3.4c-1.3-3.3-3.2-4.2-3.2-4.2c-2.6-1.8,0.2-1.8,0.2-1.8c2.9,0.2,4.4,3,4.4,3c2.6,4.4,6.7,3.2,8.4,2.4
		c0.2-1.9,1-3.2,1.8-3.9c-6.4-0.7-13.2-3.2-13.2-14.3c0-3.2,1.1-5.7,3-7.8c-0.3-0.7-1.3-3.7,0.3-7.7c0,0,2.4-0.8,7.9,3
		c2.3-0.6,4.8-1,7.2-1s4.9,0.3,7.2,1c5.5-3.7,7.9-3,7.9-3c1.6,4,0.6,6.9,0.3,7.7c1.9,2,3,4.6,3,7.8c0,11.1-6.7,13.5-13.2,14.3
		c1.1,0.9,2,2.6,2,5.4c0,3.9,0,7,0,7.9c0,0.8,0.5,1.7,2,1.4c11.5-3.8,19.8-14.6,19.8-27.4C28.8,9984.3,15.8,9971.4-0.1,9971.4z"/>
	<path fill="#191717" d="M-18,10012.9c0,0.1-0.3,0.2-0.5,0.1c-0.2-0.1-0.3-0.3-0.2-0.4c0-0.1,0.3-0.2,0.5-0.1
		C-18.1,10012.6-18,10012.8-18,10012.9L-18,10012.9z"/>
	<path fill="#191717" d="M-16.9,10014.2c-0.1,0.1-0.4,0-0.6-0.1c-0.2-0.2-0.2-0.5-0.1-0.6s0.4,0,0.6,0.1
		C-16.8,10013.8-16.8,10014.1-16.9,10014.2L-16.9,10014.2z"/>
	<path fill="#191717" d="M-15.7,10015.9c-0.2,0.1-0.5,0-0.6-0.2c-0.2-0.2-0.2-0.6,0-0.7c0.2-0.1,0.5,0,0.6,0.2
		C-15.6,10015.4-15.6,10015.7-15.7,10015.9L-15.7,10015.9z"/>
	<path fill="#191717" d="M-14.2,10017.5c-0.1,0.2-0.5,0.1-0.8-0.1c-0.2-0.2-0.3-0.6-0.1-0.7c0.1-0.2,0.5-0.1,0.8,0.1
		C-14.1,10017-14,10017.3-14.2,10017.5L-14.2,10017.5z"/>
	<path fill="#191717" d="M-12,10018.4c0,0.2-0.4,0.3-0.7,0.2s-0.5-0.4-0.5-0.6c0-0.2,0.4-0.3,0.7-0.2
		C-12.2,10017.9-12,10018.2-12,10018.4L-12,10018.4z"/>
	<path fill="#191717" d="M-9.7,10018.6c0,0.2-0.3,0.4-0.6,0.4c-0.3,0-0.6-0.2-0.6-0.4s0.3-0.4,0.6-0.4
		C-10,10018.2-9.7,10018.4-9.7,10018.6L-9.7,10018.6z"/>
	<path fill="#191717" d="M-7.5,10018.2c0,0.2-0.2,0.5-0.5,0.5c-0.3,0-0.6-0.1-0.7-0.3c0-0.2,0.2-0.5,0.5-0.5
		C-7.8,10017.8-7.5,10018-7.5,10018.2L-7.5,10018.2z"/>
</g>
</svg>
