<?xml version="1.0" encoding="utf-8"?>
<!-- Generator: Adobe Illustrator 18.1.1, SVG Export Plug-In . SVG Version: 6.00 Build 0)  -->
<svg version="1.1" id="Layer_1" xmlns:sketch="http://www.bohemiancoding.com/sketch/ns"
	 xmlns="http://www.w3.org/2000/svg" xmlns:xlink="http://www.w3.org/1999/xlink" x="0px" y="0px" viewBox="-4969 4971 60 60"
	 enable-background="new -4969 4971 60 60" xml:space="preserve">
<title></title>
<g id="black">
	<g id="twitter">
		<path id="Twitter" d="M-4939.2,5029.8c16,0,29-13,29-29s-13-29-29-29s-29,13-29,29S-4955.3,5029.8-4939.2,5029.8z"/>
		<path fill="#FFFFFF" d="M-4928.6,4989.6c-1.2-1.3-2.8-2.2-4.7-2.2c-3.5-0.1-6.4,2.9-6.4,6.7c0,0.5,0.1,1.1,0.2,1.5
			c-5.3-0.3-10-3.1-13.2-7.3c-0.6,1-0.9,2.2-0.9,3.4c0,2.4,1.1,4.5,2.9,5.7c-1.1,0-2-0.4-2.9-0.9c0,0,0,0.1,0,0.1
			c0,3.3,2.2,6.1,5.1,6.7c-0.5,0.2-1.1,0.2-1.7,0.2c-0.4,0-0.8,0-1.2-0.1c0.8,2.7,3.2,4.7,6,4.8c-2.2,1.8-5,2.9-8,2.9
			c-0.5,0-1,0-1.5-0.1c2.8,1.9,6.2,3.1,9.8,3.1c11.8,0,18.2-10.3,18.2-19.1c0-0.3,0-0.6,0-0.9c1.3-0.9,2.3-2.1,3.2-3.4
			c-1.1,0.5-2.4,0.9-3.7,1c1.3-0.8,2.3-2.1,2.8-3.7C-4925.7,4988.8-4927.1,4989.3-4928.6,4989.6z"/>
	</g>
</g>
</svg>
